<?xml version="1.0" encoding="utf-8"?>
<!-- Generator: Adobe Illustrator 21.1.0, SVG Export Plug-In . SVG Version: 6.00 Build 0)  -->
<svg version="1.1" xmlns="http://www.w3.org/2000/svg" xmlns:xlink="http://www.w3.org/1999/xlink" x="0px" y="0px"
	 viewBox="0 0 256 40" style="enable-background:new 0 0 256 40;" xml:space="preserve">
<style type="text/css">
	.st0{fill:#FFFFFF;}
	.st1{font-family:'HelveticaNeue';}
	.st2{font-size:28.2259px;}
	.st3{font-size:21px;}
</style>
<g id="Слой_7">
	<text transform="matrix(0.992 0 0 1 81.1891 30.2256)" class="st0 st1 st2">P</text>
	<text transform="matrix(0.992 0 0 1 102.5558 30.2246)" class="st0 st1 st2">L</text>
	<text transform="matrix(0.992 0 0 1 121.1183 30.2246)" class="st0 st1 st2">A</text>
	<text transform="matrix(0.992 0 0 1 142.8859 30.2295)" class="st0 st1 st2">N</text>
	<text transform="matrix(0.992 0 0 1 166.3898 30.2256)" class="st0 st1 st2">T</text>
</g>
<g id="Слой_8">
	<text transform="matrix(1 0 0 1 194.4337 24.7155)" class="st0 st1 st3">А</text>
	<text transform="matrix(1 0 0 1 209.7912 24.7155)" class="st0 st1 st3">Г</text>
	<text transform="matrix(1 0 0 1 223.2784 24.7152)" class="st0 st1 st3">Р</text>
	<text transform="matrix(1 0 0 1 239.0368 24.7155)" class="st0 st1 st3">О</text>
</g>
<g id="Слой_9">
	<rect x="192.8" y="28.4" class="st0" width="62.2" height="1.9"/>
</g>
<g id="Слой_6">
	<g>
		<path class="st0" d="M68.4,16c-0.4-1.3-1-2.4-1.8-3.3c-0.8-1-1.8-1.7-3-2.3c-1.2-0.6-2.6-0.9-4.2-0.9c-1.6,0-3,0.3-4.2,0.9
			c-1.2,0.6-2.2,1.4-3,2.3c-0.8,1-1.4,2.1-1.8,3.3c-0.4,1.3-0.6,2.6-0.6,3.9c0,1.4,0.2,2.7,0.6,3.9c0.4,1.3,1,2.4,1.8,3.3
			c0.8,1,1.8,1.7,3,2.3c1.2,0.6,2.6,0.9,4.2,0.9c1.6,0,3-0.3,4.2-0.9c1.2-0.6,2.2-1.3,3-2.3c0.8-1,1.4-2.1,1.8-3.3s0.6-2.6,0.6-3.9
			C69,18.5,68.8,17.2,68.4,16z M65.9,22.9c-0.3,1-0.7,1.9-1.2,2.6c-0.6,0.8-1.3,1.4-2.2,1.9c-0.9,0.5-1.9,0.7-3.1,0.7
			c-1.2,0-2.3-0.2-3.1-0.7c-0.9-0.5-1.6-1.1-2.2-1.9c-0.6-0.8-1-1.7-1.2-2.6c-0.3-1-0.4-2-0.4-3c0-1,0.1-2,0.4-3
			c0.3-1,0.7-1.9,1.2-2.6s1.3-1.4,2.2-1.9s1.9-0.7,3.1-0.7c1.2,0,2.3,0.2,3.1,0.7s1.6,1.1,2.2,1.9s1,1.7,1.2,2.6c0.3,1,0.4,2,0.4,3
			C66.3,20.9,66.2,21.9,65.9,22.9z"/>
		<path class="st0" d="M34.1,14.1c-0.5,0.8-1,1.6-1.2,2.6c-0.3,1-0.4,2-0.4,3c0,1.1,0.1,2.2,0.4,3.2c0.3,1,0.7,1.9,1.2,2.7
			c0.5,0.8,1.3,1.4,2.1,1.8c0.8,0.4,1.8,0.6,2.9,0.7V11.7c-1.1,0-2.1,0.2-2.9,0.7C35.4,12.8,34.7,13.4,34.1,14.1z"/>
		<path class="st0" d="M39.3,11.7c1.4,0,2.6,0.4,3.6,1.1c1,0.7,1.7,1.8,2,3.2h2.7c-0.1-1.1-0.5-2-0.9-2.8c-0.5-0.8-1.1-1.5-1.8-2
			c-0.7-0.5-1.6-1-2.5-1.2c-0.9-0.3-1.9-0.4-3-0.4c-0.1,0-0.1,0-0.2,0v2.2C39.2,11.7,39.2,11.7,39.3,11.7z"/>
		<path class="st0" d="M44.6,24.7c-0.3,0.7-0.7,1.3-1.2,1.8c-0.5,0.5-1.1,0.9-1.8,1.2c-0.7,0.3-1.5,0.4-2.3,0.4c-0.1,0-0.1,0-0.2,0
			v2.2c0,0,0,0,0,0c-1.5,0-2.9-0.3-4.1-0.8c-1.2-0.5-2.1-1.3-2.9-2.2c-0.8-0.9-1.3-2-1.7-3.3c-0.4-1.3-0.6-2.6-0.6-4.1
			c0-1.5,0.2-2.8,0.6-4.1c0.4-1.3,1-2.4,1.8-3.3c0.8-1,1.8-1.7,3-2.3c1.1-0.5,2.4-0.8,3.9-0.8V0.8H0.7v38.4h38.4v-8.8
			c2.6,0,4.6-0.7,6-2.1c1.5-1.4,2.3-3.4,2.6-5.9h-2.7C45,23.2,44.9,24,44.6,24.7z M27.5,29.9H13.6v-20h13.8v2.2H16.3v6.4h10.4v2.2
			H16.3v6.9h11.2V29.9z"/>
	</g>
</g>
</svg>
